<mxfile host="app.diagrams.net" modified="2023-03-26T19:15:51.902Z" agent="Mozilla/5.0 (Windows NT 10.0; Win64; x64) AppleWebKit/537.36 (KHTML, like Gecko) Chrome/111.0.0.0 Safari/537.36" etag="Ohitikj08phtd_TUPLWR" version="21.1.1" type="device">
  <diagram name="Page-1" id="RGh7CRGLRLJK2mTGcquI">
    <mxGraphModel dx="1105" dy="612" grid="1" gridSize="10" guides="0" tooltips="1" connect="1" arrows="1" fold="1" page="1" pageScale="1" pageWidth="827" pageHeight="1169" math="0" shadow="0">
      <root>
        <mxCell id="0" />
        <mxCell id="1" parent="0" />
        <mxCell id="_66AB_NRMPDAvyfy0Dyj-4" value="charité" style="shape=umlActor;verticalLabelPosition=bottom;verticalAlign=top;html=1;" vertex="1" parent="1">
          <mxGeometry x="35" y="370" width="35" height="70" as="geometry" />
        </mxCell>
        <mxCell id="_66AB_NRMPDAvyfy0Dyj-5" value="admin" style="shape=umlActor;verticalLabelPosition=bottom;verticalAlign=top;html=1;" vertex="1" parent="1">
          <mxGeometry x="10" y="490" width="30" height="60" as="geometry" />
        </mxCell>
        <mxCell id="_66AB_NRMPDAvyfy0Dyj-6" value="donneur" style="shape=umlActor;verticalLabelPosition=bottom;verticalAlign=top;html=1;" vertex="1" parent="1">
          <mxGeometry x="40" y="240" width="30" height="70" as="geometry" />
        </mxCell>
        <mxCell id="_66AB_NRMPDAvyfy0Dyj-9" value="user" style="shape=umlActor;verticalLabelPosition=bottom;verticalAlign=top;html=1;" vertex="1" parent="1">
          <mxGeometry x="20" y="20" width="30" height="70" as="geometry" />
        </mxCell>
        <mxCell id="_66AB_NRMPDAvyfy0Dyj-10" value="Creer un compte" style="ellipse;whiteSpace=wrap;html=1;" vertex="1" parent="1">
          <mxGeometry x="190" y="60" width="120" height="30" as="geometry" />
        </mxCell>
        <mxCell id="_66AB_NRMPDAvyfy0Dyj-11" value="se déconnecter" style="ellipse;whiteSpace=wrap;html=1;" vertex="1" parent="1">
          <mxGeometry x="190" y="110" width="120" height="30" as="geometry" />
        </mxCell>
        <mxCell id="_66AB_NRMPDAvyfy0Dyj-12" value="connecter" style="ellipse;whiteSpace=wrap;html=1;" vertex="1" parent="1">
          <mxGeometry x="190" y="10" width="120" height="30" as="geometry" />
        </mxCell>
        <mxCell id="_66AB_NRMPDAvyfy0Dyj-14" value="vérifier compte&amp;nbsp; charité" style="ellipse;whiteSpace=wrap;html=1;" vertex="1" parent="1">
          <mxGeometry x="177.5" y="545" width="120" height="40" as="geometry" />
        </mxCell>
        <mxCell id="_66AB_NRMPDAvyfy0Dyj-17" value="approuver" style="ellipse;whiteSpace=wrap;html=1;" vertex="1" parent="1">
          <mxGeometry x="160" y="610" width="90" height="40" as="geometry" />
        </mxCell>
        <mxCell id="_66AB_NRMPDAvyfy0Dyj-18" value="rejecter" style="ellipse;whiteSpace=wrap;html=1;" vertex="1" parent="1">
          <mxGeometry x="250" y="610" width="120" height="40" as="geometry" />
        </mxCell>
        <mxCell id="_66AB_NRMPDAvyfy0Dyj-19" style="edgeStyle=orthogonalEdgeStyle;rounded=0;orthogonalLoop=1;jettySize=auto;html=1;exitX=0.5;exitY=1;exitDx=0;exitDy=0;" edge="1" parent="1" source="_66AB_NRMPDAvyfy0Dyj-17" target="_66AB_NRMPDAvyfy0Dyj-17">
          <mxGeometry relative="1" as="geometry" />
        </mxCell>
        <mxCell id="_66AB_NRMPDAvyfy0Dyj-21" value="consulter statistique" style="ellipse;whiteSpace=wrap;html=1;" vertex="1" parent="1">
          <mxGeometry x="160" y="700" width="120" height="40" as="geometry" />
        </mxCell>
        <mxCell id="_66AB_NRMPDAvyfy0Dyj-22" value="poster&lt;br&gt;&amp;nbsp;une publication" style="ellipse;whiteSpace=wrap;html=1;" vertex="1" parent="1">
          <mxGeometry x="175" y="430" width="115" height="40" as="geometry" />
        </mxCell>
        <mxCell id="_66AB_NRMPDAvyfy0Dyj-24" value="gérer profile" style="ellipse;whiteSpace=wrap;html=1;" vertex="1" parent="1">
          <mxGeometry x="177.5" y="490" width="115" height="40" as="geometry" />
        </mxCell>
        <mxCell id="_66AB_NRMPDAvyfy0Dyj-25" value="donner d&#39;argent" style="ellipse;whiteSpace=wrap;html=1;" vertex="1" parent="1">
          <mxGeometry x="190" y="150" width="120" height="40" as="geometry" />
        </mxCell>
        <mxCell id="_66AB_NRMPDAvyfy0Dyj-26" value="consulter charité" style="ellipse;whiteSpace=wrap;html=1;" vertex="1" parent="1">
          <mxGeometry x="180" y="300" width="122.5" height="30" as="geometry" />
        </mxCell>
        <mxCell id="_66AB_NRMPDAvyfy0Dyj-28" value="extends" style="endArrow=open;endSize=12;dashed=1;html=1;rounded=0;exitX=0;exitY=0.5;exitDx=0;exitDy=0;entryX=0.977;entryY=0.265;entryDx=0;entryDy=0;entryPerimeter=0;" edge="1" parent="1" source="_66AB_NRMPDAvyfy0Dyj-31" target="_66AB_NRMPDAvyfy0Dyj-26">
          <mxGeometry x="-0.1947" y="7" width="160" relative="1" as="geometry">
            <mxPoint x="520" y="130" as="sourcePoint" />
            <mxPoint x="310" y="330" as="targetPoint" />
            <Array as="points" />
            <mxPoint as="offset" />
          </mxGeometry>
        </mxCell>
        <mxCell id="_66AB_NRMPDAvyfy0Dyj-29" value="extends" style="endArrow=open;endSize=12;dashed=1;html=1;rounded=0;exitX=0;exitY=0.5;exitDx=0;exitDy=0;entryX=1;entryY=0.5;entryDx=0;entryDy=0;" edge="1" parent="1" source="_66AB_NRMPDAvyfy0Dyj-30" target="_66AB_NRMPDAvyfy0Dyj-26">
          <mxGeometry x="-0.3024" y="13" width="160" relative="1" as="geometry">
            <mxPoint x="460" y="90" as="sourcePoint" />
            <mxPoint x="300" y="340" as="targetPoint" />
            <Array as="points" />
            <mxPoint as="offset" />
          </mxGeometry>
        </mxCell>
        <mxCell id="_66AB_NRMPDAvyfy0Dyj-30" value="s&#39;abonner" style="ellipse;whiteSpace=wrap;html=1;" vertex="1" parent="1">
          <mxGeometry x="360" y="330" width="120" height="30" as="geometry" />
        </mxCell>
        <mxCell id="_66AB_NRMPDAvyfy0Dyj-31" value="se desabonner" style="ellipse;whiteSpace=wrap;html=1;" vertex="1" parent="1">
          <mxGeometry x="380" y="290" width="120" height="30" as="geometry" />
        </mxCell>
        <mxCell id="_66AB_NRMPDAvyfy0Dyj-32" value="commenter publication" style="ellipse;whiteSpace=wrap;html=1;" vertex="1" parent="1">
          <mxGeometry x="180" y="210" width="120" height="30" as="geometry" />
        </mxCell>
        <mxCell id="_66AB_NRMPDAvyfy0Dyj-33" value="reacter une publication" style="ellipse;whiteSpace=wrap;html=1;" vertex="1" parent="1">
          <mxGeometry x="180" y="250" width="120" height="30" as="geometry" />
        </mxCell>
        <mxCell id="_66AB_NRMPDAvyfy0Dyj-40" value="" style="endArrow=none;html=1;rounded=0;entryX=0;entryY=0.5;entryDx=0;entryDy=0;" edge="1" parent="1" source="_66AB_NRMPDAvyfy0Dyj-9" target="_66AB_NRMPDAvyfy0Dyj-12">
          <mxGeometry width="50" height="50" relative="1" as="geometry">
            <mxPoint x="70" y="70" as="sourcePoint" />
            <mxPoint x="370" y="270" as="targetPoint" />
          </mxGeometry>
        </mxCell>
        <mxCell id="_66AB_NRMPDAvyfy0Dyj-44" value="" style="endArrow=none;html=1;rounded=0;entryX=0;entryY=0.5;entryDx=0;entryDy=0;" edge="1" parent="1" target="_66AB_NRMPDAvyfy0Dyj-11">
          <mxGeometry width="50" height="50" relative="1" as="geometry">
            <mxPoint x="60" y="50" as="sourcePoint" />
            <mxPoint x="200" y="80" as="targetPoint" />
          </mxGeometry>
        </mxCell>
        <mxCell id="_66AB_NRMPDAvyfy0Dyj-46" value="" style="endArrow=block;endSize=16;endFill=0;html=1;rounded=0;exitX=0.25;exitY=0.1;exitDx=0;exitDy=0;exitPerimeter=0;" edge="1" parent="1" source="_66AB_NRMPDAvyfy0Dyj-6">
          <mxGeometry x="-0.0769" y="-20" width="160" relative="1" as="geometry">
            <mxPoint x="50" y="230" as="sourcePoint" />
            <mxPoint x="50" y="110" as="targetPoint" />
            <Array as="points" />
            <mxPoint as="offset" />
          </mxGeometry>
        </mxCell>
        <mxCell id="_66AB_NRMPDAvyfy0Dyj-49" value="" style="endArrow=none;html=1;rounded=0;entryX=0;entryY=0.5;entryDx=0;entryDy=0;exitX=1;exitY=0.3333333333333333;exitDx=0;exitDy=0;exitPerimeter=0;" edge="1" parent="1" source="_66AB_NRMPDAvyfy0Dyj-6" target="_66AB_NRMPDAvyfy0Dyj-25">
          <mxGeometry width="50" height="50" relative="1" as="geometry">
            <mxPoint x="120" y="80" as="sourcePoint" />
            <mxPoint x="220" y="100" as="targetPoint" />
          </mxGeometry>
        </mxCell>
        <mxCell id="_66AB_NRMPDAvyfy0Dyj-50" value="" style="endArrow=block;endSize=16;endFill=0;html=1;rounded=0;exitX=0.5;exitY=0;exitDx=0;exitDy=0;exitPerimeter=0;" edge="1" parent="1" source="_66AB_NRMPDAvyfy0Dyj-4">
          <mxGeometry x="-0.0769" y="-20" width="160" relative="1" as="geometry">
            <mxPoint x="39" y="230" as="sourcePoint" />
            <mxPoint x="53" y="330" as="targetPoint" />
            <mxPoint as="offset" />
          </mxGeometry>
        </mxCell>
        <mxCell id="_66AB_NRMPDAvyfy0Dyj-51" value="" style="endArrow=none;html=1;rounded=0;entryX=0;entryY=0.5;entryDx=0;entryDy=0;" edge="1" parent="1" target="_66AB_NRMPDAvyfy0Dyj-33">
          <mxGeometry width="50" height="50" relative="1" as="geometry">
            <mxPoint x="80" y="260" as="sourcePoint" />
            <mxPoint x="170" y="290" as="targetPoint" />
          </mxGeometry>
        </mxCell>
        <mxCell id="_66AB_NRMPDAvyfy0Dyj-52" value="" style="endArrow=none;html=1;rounded=0;entryX=0;entryY=0.5;entryDx=0;entryDy=0;" edge="1" parent="1" target="_66AB_NRMPDAvyfy0Dyj-32">
          <mxGeometry width="50" height="50" relative="1" as="geometry">
            <mxPoint x="80" y="260" as="sourcePoint" />
            <mxPoint x="185" y="250" as="targetPoint" />
          </mxGeometry>
        </mxCell>
        <mxCell id="_66AB_NRMPDAvyfy0Dyj-55" value="" style="endArrow=none;html=1;rounded=0;entryX=0;entryY=0.5;entryDx=0;entryDy=0;entryPerimeter=0;" edge="1" parent="1" target="_66AB_NRMPDAvyfy0Dyj-22">
          <mxGeometry width="50" height="50" relative="1" as="geometry">
            <mxPoint x="70" y="400" as="sourcePoint" />
            <mxPoint x="230" y="160" as="targetPoint" />
            <Array as="points" />
          </mxGeometry>
        </mxCell>
        <mxCell id="_66AB_NRMPDAvyfy0Dyj-56" value="" style="endArrow=none;html=1;rounded=0;entryX=0;entryY=0.5;entryDx=0;entryDy=0;" edge="1" parent="1" target="_66AB_NRMPDAvyfy0Dyj-24">
          <mxGeometry width="50" height="50" relative="1" as="geometry">
            <mxPoint x="70" y="400" as="sourcePoint" />
            <mxPoint x="175" y="449.5" as="targetPoint" />
          </mxGeometry>
        </mxCell>
        <mxCell id="_66AB_NRMPDAvyfy0Dyj-57" value="" style="endArrow=none;html=1;rounded=0;exitX=1;exitY=0.3333333333333333;exitDx=0;exitDy=0;exitPerimeter=0;entryX=0.025;entryY=0.225;entryDx=0;entryDy=0;entryPerimeter=0;" edge="1" parent="1" source="_66AB_NRMPDAvyfy0Dyj-5" target="_66AB_NRMPDAvyfy0Dyj-14">
          <mxGeometry width="50" height="50" relative="1" as="geometry">
            <mxPoint x="90" y="410" as="sourcePoint" />
            <mxPoint x="170" y="530" as="targetPoint" />
            <Array as="points" />
          </mxGeometry>
        </mxCell>
        <mxCell id="_66AB_NRMPDAvyfy0Dyj-58" value="" style="endArrow=none;html=1;rounded=0;exitX=1;exitY=0.3333333333333333;exitDx=0;exitDy=0;exitPerimeter=0;entryX=-0.01;entryY=0.325;entryDx=0;entryDy=0;entryPerimeter=0;" edge="1" parent="1" source="_66AB_NRMPDAvyfy0Dyj-5" target="_66AB_NRMPDAvyfy0Dyj-21">
          <mxGeometry width="50" height="50" relative="1" as="geometry">
            <mxPoint x="100" y="420" as="sourcePoint" />
            <mxPoint x="220" y="680" as="targetPoint" />
            <Array as="points" />
          </mxGeometry>
        </mxCell>
        <mxCell id="_66AB_NRMPDAvyfy0Dyj-60" value="" style="endArrow=block;endSize=16;endFill=0;html=1;rounded=0;entryX=0.757;entryY=1.015;entryDx=0;entryDy=0;exitX=0.274;exitY=0.015;exitDx=0;exitDy=0;exitPerimeter=0;entryPerimeter=0;" edge="1" parent="1" source="_66AB_NRMPDAvyfy0Dyj-18" target="_66AB_NRMPDAvyfy0Dyj-14">
          <mxGeometry x="-0.0769" y="-20" width="160" relative="1" as="geometry">
            <mxPoint x="290" y="600" as="sourcePoint" />
            <mxPoint x="280" y="540" as="targetPoint" />
            <mxPoint as="offset" />
            <Array as="points" />
          </mxGeometry>
        </mxCell>
        <mxCell id="_66AB_NRMPDAvyfy0Dyj-61" value="" style="endArrow=block;endSize=16;endFill=0;html=1;rounded=0;exitX=0.5;exitY=0;exitDx=0;exitDy=0;entryX=0.343;entryY=1.095;entryDx=0;entryDy=0;entryPerimeter=0;" edge="1" parent="1" source="_66AB_NRMPDAvyfy0Dyj-17" target="_66AB_NRMPDAvyfy0Dyj-14">
          <mxGeometry x="-0.0769" y="-20" width="160" relative="1" as="geometry">
            <mxPoint x="200" y="640" as="sourcePoint" />
            <mxPoint x="202" y="590" as="targetPoint" />
            <mxPoint as="offset" />
            <Array as="points" />
          </mxGeometry>
        </mxCell>
        <mxCell id="_66AB_NRMPDAvyfy0Dyj-63" value="" style="endArrow=block;endSize=16;endFill=0;html=1;rounded=0;exitX=0.5;exitY=0;exitDx=0;exitDy=0;exitPerimeter=0;" edge="1" parent="1" source="_66AB_NRMPDAvyfy0Dyj-5">
          <mxGeometry x="-0.0769" y="-20" width="160" relative="1" as="geometry">
            <mxPoint x="20" y="480" as="sourcePoint" />
            <mxPoint x="25" y="110" as="targetPoint" />
            <mxPoint as="offset" />
          </mxGeometry>
        </mxCell>
        <mxCell id="_66AB_NRMPDAvyfy0Dyj-66" value="" style="endArrow=none;html=1;rounded=0;entryX=0;entryY=0.5;entryDx=0;entryDy=0;" edge="1" parent="1" target="_66AB_NRMPDAvyfy0Dyj-10">
          <mxGeometry width="50" height="50" relative="1" as="geometry">
            <mxPoint x="80" y="260" as="sourcePoint" />
            <mxPoint x="200" y="420" as="targetPoint" />
            <Array as="points" />
          </mxGeometry>
        </mxCell>
        <mxCell id="_66AB_NRMPDAvyfy0Dyj-68" value="s&#39;authentifier" style="ellipse;whiteSpace=wrap;html=1;" vertex="1" parent="1">
          <mxGeometry x="560" y="140" width="120" height="40" as="geometry" />
        </mxCell>
        <mxCell id="_66AB_NRMPDAvyfy0Dyj-70" value="invlude" style="endArrow=open;endSize=12;dashed=1;html=1;rounded=0;exitX=0.94;exitY=0.735;exitDx=0;exitDy=0;exitPerimeter=0;entryX=0;entryY=0.5;entryDx=0;entryDy=0;" edge="1" parent="1" source="_66AB_NRMPDAvyfy0Dyj-25" target="_66AB_NRMPDAvyfy0Dyj-68">
          <mxGeometry x="-0.1947" y="7" width="160" relative="1" as="geometry">
            <mxPoint x="465" y="134" as="sourcePoint" />
            <mxPoint x="550" y="150" as="targetPoint" />
            <Array as="points" />
            <mxPoint as="offset" />
          </mxGeometry>
        </mxCell>
        <mxCell id="_66AB_NRMPDAvyfy0Dyj-72" value="invlude" style="endArrow=open;endSize=12;dashed=1;html=1;rounded=0;exitX=1;exitY=0.5;exitDx=0;exitDy=0;" edge="1" parent="1" source="_66AB_NRMPDAvyfy0Dyj-32">
          <mxGeometry x="-0.1947" y="7" width="160" relative="1" as="geometry">
            <mxPoint x="323" y="199" as="sourcePoint" />
            <mxPoint x="560" y="180" as="targetPoint" />
            <Array as="points" />
            <mxPoint as="offset" />
          </mxGeometry>
        </mxCell>
        <mxCell id="_66AB_NRMPDAvyfy0Dyj-73" value="invlude" style="endArrow=open;endSize=12;dashed=1;html=1;rounded=0;exitX=1;exitY=0;exitDx=0;exitDy=0;entryX=0;entryY=1;entryDx=0;entryDy=0;" edge="1" parent="1" source="_66AB_NRMPDAvyfy0Dyj-26" target="_66AB_NRMPDAvyfy0Dyj-68">
          <mxGeometry x="-0.1947" y="7" width="160" relative="1" as="geometry">
            <mxPoint x="333" y="209" as="sourcePoint" />
            <mxPoint x="560" y="180" as="targetPoint" />
            <Array as="points">
              <mxPoint x="560" y="200" />
            </Array>
            <mxPoint as="offset" />
          </mxGeometry>
        </mxCell>
        <mxCell id="_66AB_NRMPDAvyfy0Dyj-74" value="invlude" style="endArrow=open;endSize=12;dashed=1;html=1;rounded=0;exitX=1;exitY=0.5;exitDx=0;exitDy=0;" edge="1" parent="1" source="_66AB_NRMPDAvyfy0Dyj-22">
          <mxGeometry x="-0.1947" y="7" width="160" relative="1" as="geometry">
            <mxPoint x="343" y="219" as="sourcePoint" />
            <mxPoint x="590" y="180" as="targetPoint" />
            <Array as="points">
              <mxPoint x="520" y="390" />
            </Array>
            <mxPoint as="offset" />
          </mxGeometry>
        </mxCell>
        <mxCell id="_66AB_NRMPDAvyfy0Dyj-75" value="invlude" style="endArrow=open;endSize=12;dashed=1;html=1;rounded=0;exitX=1;exitY=0.5;exitDx=0;exitDy=0;" edge="1" parent="1" source="_66AB_NRMPDAvyfy0Dyj-24">
          <mxGeometry x="-0.1993" y="-1" width="160" relative="1" as="geometry">
            <mxPoint x="353" y="229" as="sourcePoint" />
            <mxPoint x="620" y="180" as="targetPoint" />
            <Array as="points">
              <mxPoint x="560" y="430" />
            </Array>
            <mxPoint as="offset" />
          </mxGeometry>
        </mxCell>
        <mxCell id="_66AB_NRMPDAvyfy0Dyj-76" value="invlude" style="endArrow=open;endSize=12;dashed=1;html=1;rounded=0;exitX=1;exitY=0.5;exitDx=0;exitDy=0;entryX=0.723;entryY=0.985;entryDx=0;entryDy=0;entryPerimeter=0;" edge="1" parent="1" source="_66AB_NRMPDAvyfy0Dyj-14" target="_66AB_NRMPDAvyfy0Dyj-68">
          <mxGeometry x="-0.1986" y="-1" width="160" relative="1" as="geometry">
            <mxPoint x="303" y="460" as="sourcePoint" />
            <mxPoint x="650" y="190" as="targetPoint" />
            <Array as="points">
              <mxPoint x="570" y="440" />
            </Array>
            <mxPoint as="offset" />
          </mxGeometry>
        </mxCell>
        <mxCell id="_66AB_NRMPDAvyfy0Dyj-77" value="invlude" style="endArrow=open;endSize=12;dashed=1;html=1;rounded=0;exitX=1;exitY=0.5;exitDx=0;exitDy=0;entryX=1;entryY=1;entryDx=0;entryDy=0;" edge="1" parent="1" source="_66AB_NRMPDAvyfy0Dyj-21" target="_66AB_NRMPDAvyfy0Dyj-68">
          <mxGeometry x="-0.1993" y="-1" width="160" relative="1" as="geometry">
            <mxPoint x="308" y="520" as="sourcePoint" />
            <mxPoint x="654" y="193" as="targetPoint" />
            <Array as="points">
              <mxPoint x="570" y="550" />
            </Array>
            <mxPoint as="offset" />
          </mxGeometry>
        </mxCell>
        <mxCell id="_66AB_NRMPDAvyfy0Dyj-79" value="invlude" style="endArrow=open;endSize=12;dashed=1;html=1;rounded=0;exitX=1;exitY=0.5;exitDx=0;exitDy=0;entryX=0;entryY=0;entryDx=0;entryDy=0;" edge="1" parent="1" source="_66AB_NRMPDAvyfy0Dyj-11" target="_66AB_NRMPDAvyfy0Dyj-68">
          <mxGeometry x="-0.1947" y="7" width="160" relative="1" as="geometry">
            <mxPoint x="313" y="189" as="sourcePoint" />
            <mxPoint x="550" y="110" as="targetPoint" />
            <Array as="points" />
            <mxPoint as="offset" />
          </mxGeometry>
        </mxCell>
        <mxCell id="_66AB_NRMPDAvyfy0Dyj-80" value="" style="endArrow=none;html=1;rounded=0;entryX=0;entryY=0.5;entryDx=0;entryDy=0;" edge="1" parent="1" target="_66AB_NRMPDAvyfy0Dyj-26">
          <mxGeometry width="50" height="50" relative="1" as="geometry">
            <mxPoint x="80" y="260" as="sourcePoint" />
            <mxPoint x="190" y="305" as="targetPoint" />
          </mxGeometry>
        </mxCell>
        <mxCell id="_66AB_NRMPDAvyfy0Dyj-81" value="consulter fil d&#39;actualité" style="ellipse;whiteSpace=wrap;html=1;" vertex="1" parent="1">
          <mxGeometry x="180" y="340" width="115" height="30" as="geometry" />
        </mxCell>
        <mxCell id="_66AB_NRMPDAvyfy0Dyj-82" value="" style="endArrow=none;html=1;rounded=0;entryX=0;entryY=0.5;entryDx=0;entryDy=0;" edge="1" parent="1" target="_66AB_NRMPDAvyfy0Dyj-85">
          <mxGeometry width="50" height="50" relative="1" as="geometry">
            <mxPoint x="80" y="260" as="sourcePoint" />
            <mxPoint x="170" y="440" as="targetPoint" />
            <Array as="points" />
          </mxGeometry>
        </mxCell>
        <mxCell id="_66AB_NRMPDAvyfy0Dyj-86" style="edgeStyle=orthogonalEdgeStyle;rounded=0;orthogonalLoop=1;jettySize=auto;html=1;exitX=0.5;exitY=1;exitDx=0;exitDy=0;entryX=0.583;entryY=-0.045;entryDx=0;entryDy=0;entryPerimeter=0;" edge="1" parent="1" source="_66AB_NRMPDAvyfy0Dyj-85" target="_66AB_NRMPDAvyfy0Dyj-22">
          <mxGeometry relative="1" as="geometry" />
        </mxCell>
        <mxCell id="_66AB_NRMPDAvyfy0Dyj-85" value="consulter dashboard" style="ellipse;whiteSpace=wrap;html=1;" vertex="1" parent="1">
          <mxGeometry x="177.5" y="385" width="122.5" height="35" as="geometry" />
        </mxCell>
        <mxCell id="_66AB_NRMPDAvyfy0Dyj-87" value="" style="endArrow=none;html=1;rounded=0;entryX=0;entryY=0.5;entryDx=0;entryDy=0;" edge="1" parent="1" target="_66AB_NRMPDAvyfy0Dyj-81">
          <mxGeometry width="50" height="50" relative="1" as="geometry">
            <mxPoint x="80" y="260" as="sourcePoint" />
            <mxPoint x="185" y="460" as="targetPoint" />
            <Array as="points" />
          </mxGeometry>
        </mxCell>
        <mxCell id="_66AB_NRMPDAvyfy0Dyj-89" value="&lt;br&gt;&lt;br&gt;&lt;br&gt;&lt;br&gt;" style="html=1;whiteSpace=wrap;backgroundOutline=0;strokeColor=default;fillColor=none;" vertex="1" parent="1">
          <mxGeometry x="90" width="620" height="790" as="geometry" />
        </mxCell>
        <mxCell id="_66AB_NRMPDAvyfy0Dyj-94" value="Helptun" style="ellipse;whiteSpace=wrap;fontColor=default;fillColor=none;strokeColor=none;" vertex="1" parent="1">
          <mxGeometry x="310" y="740" width="140" height="40" as="geometry" />
        </mxCell>
      </root>
    </mxGraphModel>
  </diagram>
</mxfile>
